<mxfile host="app.diagrams.net" agent="Mozilla/5.0 (X11; Linux x86_64) AppleWebKit/537.36 (KHTML, like Gecko) Chrome/130.0.0.0 Safari/537.36" version="26.0.1">
  <diagram name="Page-1" id="7lzqFpMsJ9ejTZg81idf">
    <mxGraphModel dx="328" dy="282" grid="1" gridSize="10" guides="1" tooltips="1" connect="1" arrows="1" fold="1" page="1" pageScale="1" pageWidth="850" pageHeight="1100" math="0" shadow="0">
      <root>
        <mxCell id="0" />
        <mxCell id="1" parent="0" />
        <mxCell id="u26W1IifxLpfNoHvAMtw-1" value="0" style="rounded=0;whiteSpace=wrap;html=1;" vertex="1" parent="1">
          <mxGeometry x="60" y="240" width="30" height="30" as="geometry" />
        </mxCell>
        <mxCell id="u26W1IifxLpfNoHvAMtw-2" value="1" style="rounded=0;whiteSpace=wrap;html=1;" vertex="1" parent="1">
          <mxGeometry x="90" y="240" width="30" height="30" as="geometry" />
        </mxCell>
        <mxCell id="u26W1IifxLpfNoHvAMtw-3" value="2" style="rounded=0;whiteSpace=wrap;html=1;" vertex="1" parent="1">
          <mxGeometry x="120" y="240" width="30" height="30" as="geometry" />
        </mxCell>
        <mxCell id="u26W1IifxLpfNoHvAMtw-4" value="3" style="rounded=0;whiteSpace=wrap;html=1;" vertex="1" parent="1">
          <mxGeometry x="150" y="240" width="30" height="30" as="geometry" />
        </mxCell>
        <mxCell id="u26W1IifxLpfNoHvAMtw-5" value="4" style="rounded=0;whiteSpace=wrap;html=1;" vertex="1" parent="1">
          <mxGeometry x="180" y="240" width="30" height="30" as="geometry" />
        </mxCell>
        <mxCell id="u26W1IifxLpfNoHvAMtw-6" value="5" style="rounded=0;whiteSpace=wrap;html=1;" vertex="1" parent="1">
          <mxGeometry x="210" y="240" width="30" height="30" as="geometry" />
        </mxCell>
        <mxCell id="u26W1IifxLpfNoHvAMtw-7" value="6" style="rounded=0;whiteSpace=wrap;html=1;" vertex="1" parent="1">
          <mxGeometry x="240" y="240" width="30" height="30" as="geometry" />
        </mxCell>
        <mxCell id="u26W1IifxLpfNoHvAMtw-8" value="7" style="rounded=0;whiteSpace=wrap;html=1;" vertex="1" parent="1">
          <mxGeometry x="270" y="240" width="30" height="30" as="geometry" />
        </mxCell>
        <mxCell id="u26W1IifxLpfNoHvAMtw-10" value="8" style="rounded=0;whiteSpace=wrap;html=1;" vertex="1" parent="1">
          <mxGeometry x="300" y="240" width="30" height="30" as="geometry" />
        </mxCell>
        <mxCell id="u26W1IifxLpfNoHvAMtw-11" value="9" style="rounded=0;whiteSpace=wrap;html=1;" vertex="1" parent="1">
          <mxGeometry x="330" y="240" width="30" height="30" as="geometry" />
        </mxCell>
        <mxCell id="u26W1IifxLpfNoHvAMtw-32" value="" style="group" vertex="1" connectable="0" parent="1">
          <mxGeometry x="60" y="280" width="90" height="30" as="geometry" />
        </mxCell>
        <mxCell id="u26W1IifxLpfNoHvAMtw-12" value="" style="shape=curlyBracket;whiteSpace=wrap;html=1;rounded=1;labelPosition=left;verticalLabelPosition=middle;align=right;verticalAlign=middle;rotation=-90;" vertex="1" parent="u26W1IifxLpfNoHvAMtw-32">
          <mxGeometry x="35" y="-35" width="20" height="90" as="geometry" />
        </mxCell>
        <mxCell id="u26W1IifxLpfNoHvAMtw-21" value="0" style="text;html=1;align=center;verticalAlign=middle;whiteSpace=wrap;rounded=0;" vertex="1" parent="u26W1IifxLpfNoHvAMtw-32">
          <mxGeometry x="40" y="20" width="10" height="10" as="geometry" />
        </mxCell>
        <mxCell id="u26W1IifxLpfNoHvAMtw-33" value="" style="group" vertex="1" connectable="0" parent="1">
          <mxGeometry x="90" y="310" width="90" height="30" as="geometry" />
        </mxCell>
        <mxCell id="u26W1IifxLpfNoHvAMtw-34" value="" style="shape=curlyBracket;whiteSpace=wrap;html=1;rounded=1;labelPosition=left;verticalLabelPosition=middle;align=right;verticalAlign=middle;rotation=-90;" vertex="1" parent="u26W1IifxLpfNoHvAMtw-33">
          <mxGeometry x="35" y="-35" width="20" height="90" as="geometry" />
        </mxCell>
        <mxCell id="u26W1IifxLpfNoHvAMtw-35" value="1" style="text;html=1;align=center;verticalAlign=middle;whiteSpace=wrap;rounded=0;" vertex="1" parent="u26W1IifxLpfNoHvAMtw-33">
          <mxGeometry x="40" y="20" width="10" height="10" as="geometry" />
        </mxCell>
        <mxCell id="u26W1IifxLpfNoHvAMtw-36" value="" style="group" vertex="1" connectable="0" parent="1">
          <mxGeometry x="120" y="340" width="90" height="30" as="geometry" />
        </mxCell>
        <mxCell id="u26W1IifxLpfNoHvAMtw-37" value="" style="shape=curlyBracket;whiteSpace=wrap;html=1;rounded=1;labelPosition=left;verticalLabelPosition=middle;align=right;verticalAlign=middle;rotation=-90;" vertex="1" parent="u26W1IifxLpfNoHvAMtw-36">
          <mxGeometry x="35" y="-35" width="20" height="90" as="geometry" />
        </mxCell>
        <mxCell id="u26W1IifxLpfNoHvAMtw-38" value="2" style="text;html=1;align=center;verticalAlign=middle;whiteSpace=wrap;rounded=0;" vertex="1" parent="u26W1IifxLpfNoHvAMtw-36">
          <mxGeometry x="40" y="20" width="10" height="10" as="geometry" />
        </mxCell>
        <mxCell id="u26W1IifxLpfNoHvAMtw-39" value="" style="group" vertex="1" connectable="0" parent="1">
          <mxGeometry x="150" y="370" width="90" height="30" as="geometry" />
        </mxCell>
        <mxCell id="u26W1IifxLpfNoHvAMtw-40" value="" style="shape=curlyBracket;whiteSpace=wrap;html=1;rounded=1;labelPosition=left;verticalLabelPosition=middle;align=right;verticalAlign=middle;rotation=-90;" vertex="1" parent="u26W1IifxLpfNoHvAMtw-39">
          <mxGeometry x="35" y="-35" width="20" height="90" as="geometry" />
        </mxCell>
        <mxCell id="u26W1IifxLpfNoHvAMtw-41" value="3" style="text;html=1;align=center;verticalAlign=middle;whiteSpace=wrap;rounded=0;" vertex="1" parent="u26W1IifxLpfNoHvAMtw-39">
          <mxGeometry x="40" y="20" width="10" height="10" as="geometry" />
        </mxCell>
        <mxCell id="u26W1IifxLpfNoHvAMtw-42" value="" style="group" vertex="1" connectable="0" parent="1">
          <mxGeometry x="180" y="280" width="90" height="30" as="geometry" />
        </mxCell>
        <mxCell id="u26W1IifxLpfNoHvAMtw-43" value="" style="shape=curlyBracket;whiteSpace=wrap;html=1;rounded=1;labelPosition=left;verticalLabelPosition=middle;align=right;verticalAlign=middle;rotation=-90;" vertex="1" parent="u26W1IifxLpfNoHvAMtw-42">
          <mxGeometry x="35" y="-35" width="20" height="90" as="geometry" />
        </mxCell>
        <mxCell id="u26W1IifxLpfNoHvAMtw-44" value="4" style="text;html=1;align=center;verticalAlign=middle;whiteSpace=wrap;rounded=0;" vertex="1" parent="u26W1IifxLpfNoHvAMtw-42">
          <mxGeometry x="40" y="20" width="10" height="10" as="geometry" />
        </mxCell>
        <mxCell id="u26W1IifxLpfNoHvAMtw-45" value="" style="group" vertex="1" connectable="0" parent="1">
          <mxGeometry x="210" y="310" width="90" height="30" as="geometry" />
        </mxCell>
        <mxCell id="u26W1IifxLpfNoHvAMtw-46" value="" style="shape=curlyBracket;whiteSpace=wrap;html=1;rounded=1;labelPosition=left;verticalLabelPosition=middle;align=right;verticalAlign=middle;rotation=-90;" vertex="1" parent="u26W1IifxLpfNoHvAMtw-45">
          <mxGeometry x="35" y="-35" width="20" height="90" as="geometry" />
        </mxCell>
        <mxCell id="u26W1IifxLpfNoHvAMtw-47" value="5" style="text;html=1;align=center;verticalAlign=middle;whiteSpace=wrap;rounded=0;" vertex="1" parent="u26W1IifxLpfNoHvAMtw-45">
          <mxGeometry x="40" y="20" width="10" height="10" as="geometry" />
        </mxCell>
        <mxCell id="u26W1IifxLpfNoHvAMtw-48" value="" style="group" vertex="1" connectable="0" parent="1">
          <mxGeometry x="240" y="340" width="90" height="30" as="geometry" />
        </mxCell>
        <mxCell id="u26W1IifxLpfNoHvAMtw-49" value="" style="shape=curlyBracket;whiteSpace=wrap;html=1;rounded=1;labelPosition=left;verticalLabelPosition=middle;align=right;verticalAlign=middle;rotation=-90;" vertex="1" parent="u26W1IifxLpfNoHvAMtw-48">
          <mxGeometry x="35" y="-35" width="20" height="90" as="geometry" />
        </mxCell>
        <mxCell id="u26W1IifxLpfNoHvAMtw-50" value="6" style="text;html=1;align=center;verticalAlign=middle;whiteSpace=wrap;rounded=0;" vertex="1" parent="u26W1IifxLpfNoHvAMtw-48">
          <mxGeometry x="40" y="20" width="10" height="10" as="geometry" />
        </mxCell>
        <mxCell id="u26W1IifxLpfNoHvAMtw-51" value="" style="group" vertex="1" connectable="0" parent="1">
          <mxGeometry x="270" y="370" width="90" height="30" as="geometry" />
        </mxCell>
        <mxCell id="u26W1IifxLpfNoHvAMtw-52" value="" style="shape=curlyBracket;whiteSpace=wrap;html=1;rounded=1;labelPosition=left;verticalLabelPosition=middle;align=right;verticalAlign=middle;rotation=-90;" vertex="1" parent="u26W1IifxLpfNoHvAMtw-51">
          <mxGeometry x="35" y="-35" width="20" height="90" as="geometry" />
        </mxCell>
        <mxCell id="u26W1IifxLpfNoHvAMtw-53" value="7" style="text;html=1;align=center;verticalAlign=middle;whiteSpace=wrap;rounded=0;" vertex="1" parent="u26W1IifxLpfNoHvAMtw-51">
          <mxGeometry x="40" y="20" width="10" height="10" as="geometry" />
        </mxCell>
      </root>
    </mxGraphModel>
  </diagram>
</mxfile>
